<svg width="1400" height="1400" viewBox="0 0 1400 1400" fill="none" xmlns="http://www.w3.org/2000/svg">
<rect width="1400" height="1400" fill="black"/>
<path d="M729 1179V1268L723 1270L717 1268L664 1145.5L650.5 1136.5L585.5 1016.5L274.5 745V381.5V374H283.5L334 467L387 419H539V402H482V326.5C522.377 289.893 547.777 272.958 597.5 248.5C638.37 222.529 663.868 213.889 713.5 208C769.41 213.864 795.697 223.708 837 248.5C891.603 272.195 918.118 288.892 956 326.5V402H896.5V419H1053.5L1106.5 466L1146 381H1150V390V751.5L950.5 928L930 996.5L729 1179Z" fill="black" stroke="white" stroke-width="5" stroke-linejoin="round"/>
<path d="M763 1144.5L727 1177L726 983L853 870.5V798L857 794H863L954 864.5L763 1037V1144.5Z" fill="#47A0B8"/>
<path d="M886.5 483L718.5 610.5L551.5 483C550.529 473.141 553.348 469.296 561.5 464L573.5 466.5V356.5C689.888 377.949 753.326 378.287 863 356.5V466.5L873 464C883.074 468.8 885.895 473.034 886.5 483Z" fill="#47A0B8"/>
<path d="M387.947 421.5L335.5 469L401.163 603L512.437 514.243C517.286 491.323 522.87 480.071 538 462.883L538 421.5H387.947Z" fill="#47A0B8"/>
<path d="M484.5 399.5H539.5C531.073 333.647 548.131 303.116 600 250C531 283.5 505 309 484.5 327.5V399.5Z" fill="#47A0B8"/>
<path d="M953.5 400.5H895.5C904.003 327.895 889.286 298.884 836 251C889.5 273.5 914 289 953.5 327.5V400.5Z" fill="#47A0B8"/>
<path d="M538 520L410 620.5L533.5 720C544.333 728.922 548.988 734.869 552 749L666.5 1143.5L700.5 1222.5V853L688.5 841V627L538 520Z" fill="#47A0B8"/>
<path d="M896 421.5L896 463.5L915.5 490.5L926 516.5L1045 603.5L1102.5 465.5L1052.5 421.5H896Z" fill="#47A0B8"/>
<path d="M867 724.5L730.5 840.5L710 821.5V659.5L898 517L1041.5 624L967.5 800.5L867 724.5Z" fill="#47A0B8"/>
<path d="M1018.5 864.5L948 927L966 865V814.5L1130 670V739.5L1022 836.5L1001.5 821.5L989.5 830V842L1018.5 864.5Z" fill="#47A0B8"/>
<path d="M277 476.5V743.867L335.5 794.95L404 686.049L354 641.5L277 476.5Z" fill="#47A0B8"/>
<path d="M497.5 778.5C497.5 778.5 495.202 766.477 487 760L416.5 697.186L347.582 805.5L587.5 1015L497.5 778.5Z" fill="#47A0B8"/>
<path d="M277 476.5V743.867L335.5 794.95L404 686.049L354 641.5L277 476.5Z" stroke="black"/>
<path d="M497.5 778.5C497.5 778.5 495.202 766.477 487 760L416.5 697.186L347.582 805.5L587.5 1015L497.5 778.5Z" stroke="black"/>
<path d="M1147.5 621.5V434L1028.92 723.69C1026.17 729.044 1026.92 729.096 1031 725.644L1147.5 621.5Z" fill="#47A0B8"/>
<circle cx="637.5" cy="436.5" r="37.5" fill="white"/>
<circle cx="798.5" cy="436.5" r="37.5" fill="white"/>
<path d="M777.557 802.452V801.14L778.638 800.394C780.896 798.837 782.204 797.448 783.089 795.507C784.02 793.468 784.582 790.61 784.869 785.913V667.007L734.742 736.155V927.418V927.449L734.742 927.481C734.7 929.133 734.719 930.42 734.822 931.421C734.928 932.448 735.105 932.963 735.238 933.201C735.304 933.319 735.321 933.324 735.37 933.337C735.376 933.338 735.382 933.34 735.389 933.342C735.574 933.396 736.052 933.455 737.052 933.27L740.006 932.724V935.728V942V944.5H737.506H703.81H701.285L701.311 941.974L701.375 935.702L701.401 933.155L703.948 933.229C706.289 933.298 706.628 932.938 706.713 932.831C706.796 932.727 706.996 932.4 707.112 931.519C707.229 930.639 707.238 929.391 707.09 927.627L707.08 927.51L707.082 927.392L708.573 782.351C700.979 797.529 696.277 805.623 690.448 812.67L690.439 812.68L690.43 812.691C688.209 815.316 686.206 817.298 683.835 818.718C681.435 820.157 678.836 820.916 675.575 821.39L675.527 821.397L675.478 821.402C674.192 821.538 672.487 821.46 671.209 820.058C670.169 818.917 669.857 817.303 669.669 815.972L669.527 814.963L670.13 814.142C671.816 811.85 673.175 810.042 675.986 806.329L697.445 760.308L688.97 755.162L624.153 825.278C614.976 836.081 611.054 841.531 606.649 853.786L606.055 855.44H604.297H579H575.735L576.587 852.288C580.299 838.547 584.484 830.826 594.234 817.444L594.315 817.332L594.408 817.23L666.488 738.262L629.42 715.904C617.699 710.165 609.123 704.288 602.931 695.067C596.759 685.876 593.141 673.636 590.706 655.555L590.676 655.334L590.686 655.111C591.485 637.06 594.262 624.538 600.588 614.992C606.935 605.414 616.615 599.191 630.347 593.192L630.511 593.12L630.683 593.073C646.151 588.805 657.828 588.424 683.129 591.591L683.258 591.607L683.384 591.636C701.916 595.941 719.435 595.979 737.617 590.124L740.884 589.072V592.504V598.775V600.299L739.529 600.998C727.141 607.384 713.544 606.725 688.277 604.243L688.268 604.242C673.718 602.756 663.663 602.966 655.317 605.174C647.039 607.364 640.225 611.579 632.266 618.529C624.716 625.19 619.791 638.037 618.202 655.345C618.095 670.117 621.96 680.14 629.054 689.216C643.225 700.917 659.82 712.014 687.776 730.67V659.346C687.502 652.185 686.448 648.616 684.873 646.679C683.414 644.884 681.104 644.018 676.592 643.599L674.324 643.389V641.11V632.33V629.456L677.169 629.854C695.615 632.43 705.851 632.455 724.29 629.854L727.139 629.452V632.33V641.11V643.46L724.793 643.605C719.855 643.911 717.093 644.768 715.334 646.652C713.521 648.594 712.254 652.18 711.931 659.372L710.893 733.915C734.961 693.231 752.192 669.563 785.5 632.08L786.148 631.351L787.119 631.253C788.955 631.069 791.523 631.203 794.635 631.483C797.46 631.738 800.904 632.131 804.92 632.589C805.348 632.638 805.782 632.688 806.223 632.738C810.684 632.719 815.017 632.283 820.555 631.281L823.5 630.748V633.741V640.953V643.578L820.879 643.45C816.56 643.241 814.065 643.803 812.331 645.045C810.625 646.267 809.208 648.464 807.854 652.633V785.902C808.181 790.555 808.768 793.471 809.587 795.587C810.385 797.649 811.455 799.089 813.015 800.73L813.703 801.453V802.452V807.627V810.127H811.203H780.057H777.557V807.627V802.452Z" fill="white" stroke="white" stroke-width="5"/>
</svg>
